<svg width="24" height="24" viewBox="0 0 24 24" fill="none" xmlns="http://www.w3.org/2000/svg">
<g clip-path="url(#clip0_272_2191)">
<path d="M21.8927 1.24717L16.1381 1.24719V-0.247559C16.1381 -0.661934 15.8165 -0.997559 15.4194 -0.997559C15.0224 -0.997559 14.7008 -0.661934 14.7008 -0.247559V1.24682H8.95126V-0.247559C8.95126 -0.661934 8.62964 -0.997559 8.23257 -0.997559C7.83549 -0.997559 7.51388 -0.661934 7.51388 -0.247559V1.24682H1.76941C0.975616 1.24682 0.332031 1.91844 0.332031 2.74682V21.4968C0.332031 22.3252 0.975616 22.9968 1.76941 22.9968H21.8927C22.6865 22.9968 23.33 22.3252 23.33 21.4968V2.74682C23.33 1.91879 22.6865 1.24717 21.8927 1.24717ZM21.8927 21.4968H1.76941V2.74682H7.51388V3.50244C7.51388 3.91679 7.83549 4.25244 8.23257 4.25244C8.62964 4.25244 8.95126 3.91679 8.95126 3.50244V2.74719H14.7008V3.50282C14.7008 3.91719 15.0224 4.25282 15.4194 4.25282C15.8165 4.25282 16.1381 3.91719 16.1381 3.50282V2.74719H21.8927V21.4968ZM16.8619 10.9972H18.2992C18.6959 10.9972 19.0179 10.6612 19.0179 10.2472V8.74717C19.0179 8.33317 18.6959 7.99717 18.2992 7.99717H16.8619C16.4651 7.99717 16.1432 8.33317 16.1432 8.74717V10.2472C16.1432 10.6612 16.4651 10.9972 16.8619 10.9972ZM16.8619 16.9968H18.2992C18.6959 16.9968 19.0179 16.6612 19.0179 16.2468V14.7468C19.0179 14.3328 18.6959 13.9968 18.2992 13.9968H16.8619C16.4651 13.9968 16.1432 14.3328 16.1432 14.7468V16.2468C16.1432 16.6615 16.4651 16.9968 16.8619 16.9968ZM12.5497 13.9968H11.1123C10.7156 13.9968 10.3937 14.3328 10.3937 14.7468V16.2468C10.3937 16.6612 10.7156 16.9968 11.1123 16.9968H12.5497C12.9464 16.9968 13.2684 16.6612 13.2684 16.2468V14.7468C13.2684 14.3332 12.9464 13.9968 12.5497 13.9968ZM12.5497 7.99717H11.1123C10.7156 7.99717 10.3937 8.33317 10.3937 8.74717V10.2472C10.3937 10.6612 10.7156 10.9972 11.1123 10.9972H12.5497C12.9464 10.9972 13.2684 10.6612 13.2684 10.2472V8.74717C13.2684 8.33279 12.9464 7.99717 12.5497 7.99717ZM6.80022 7.99717H5.36285C4.96613 7.99717 4.64416 8.33317 4.64416 8.74717V10.2472C4.64416 10.6612 4.96613 10.9972 5.36285 10.9972H6.80022C7.19694 10.9972 7.51891 10.6612 7.51891 10.2472V8.74717C7.51891 8.33279 7.19694 7.99717 6.80022 7.99717ZM6.80022 13.9968H5.36285C4.96613 13.9968 4.64416 14.3328 4.64416 14.7468V16.2468C4.64416 16.6612 4.96613 16.9968 5.36285 16.9968H6.80022C7.19694 16.9968 7.51891 16.6612 7.51891 16.2468V14.7468C7.51891 14.3332 7.19694 13.9968 6.80022 13.9968Z" fill="#A3A3A3"/>
</g>
<defs>
<clipPath id="clip0_272_2191">
<rect width="22.998" height="24" fill="white" transform="translate(0.332031)"/>
</clipPath>
</defs>
</svg>
