<svg width="24" height="24" viewBox="0 0 24 24" fill="none" xmlns="http://www.w3.org/2000/svg">
<path d="M2.40002 4.1976C2.40002 3.204 3.20522 2.4 4.20002 2.4H5.40002C6.39242 2.4 7.19882 3.204 7.19882 4.1976V19.776C7.19882 20.7684 6.39242 21.5724 5.39882 21.5724H4.19882C3.20522 21.5724 2.40002 20.7684 2.40002 19.776V4.1976ZM4.20002 3.5976C4.04089 3.5976 3.88828 3.66082 3.77576 3.77334C3.66324 3.88586 3.60002 4.03847 3.60002 4.1976V19.776C3.60034 19.9349 3.6637 20.0872 3.77618 20.1995C3.88867 20.3118 4.0411 20.3748 4.20002 20.3748H5.40002C5.55895 20.3745 5.71125 20.3111 5.82351 20.1986C5.93578 20.0862 5.99882 19.9337 5.99882 19.7748V4.1988C5.99882 4.03967 5.93561 3.88706 5.82309 3.77454C5.71057 3.66202 5.55795 3.5988 5.39882 3.5988H4.19882L4.20002 3.5976ZM8.39762 4.1976C8.39762 3.204 9.20402 2.4 10.1976 2.4H11.3976C12.3912 2.4 13.1964 3.204 13.1964 4.1976V19.776C13.1964 20.7684 12.3912 21.5724 11.3964 21.5724H10.1964C9.20402 21.5724 8.39762 20.7684 8.39762 19.776V4.1976ZM10.1976 3.5976C10.0385 3.5976 9.88588 3.66082 9.77336 3.77334C9.66084 3.88586 9.59762 4.03847 9.59762 4.1976V19.776C9.59794 19.9349 9.6613 20.0872 9.77378 20.1995C9.88627 20.3118 10.0387 20.3748 10.1976 20.3748H11.3976C11.5568 20.3748 11.7094 20.3116 11.8219 20.1991C11.9344 20.0865 11.9976 19.9339 11.9976 19.7748V4.1988C11.9976 4.03967 11.9344 3.88706 11.8219 3.77454C11.7094 3.66202 11.5568 3.5988 11.3976 3.5988H10.1976V3.5976ZM18.8616 7.3884C18.8068 7.15085 18.7043 6.92692 18.5603 6.73018C18.4163 6.53344 18.2339 6.368 18.0241 6.24389C17.8142 6.11978 17.5814 6.03959 17.3396 6.00819C17.0978 5.97679 16.8522 5.99482 16.6176 6.0612L15.7236 6.3132C15.2871 6.43668 14.9134 6.72063 14.6775 7.10811C14.4416 7.49558 14.3609 7.95792 14.4516 8.4024L16.8552 20.1624C16.9043 20.4007 17.0012 20.6266 17.1401 20.8265C17.279 21.0263 17.457 21.1959 17.6632 21.325C17.8695 21.4541 18.0998 21.54 18.3402 21.5776C18.5807 21.6152 18.8262 21.6036 19.062 21.5436L20.244 21.2436C21.192 21.0036 21.7728 20.0508 21.5544 19.0992L18.8616 7.3884ZM16.944 7.2144C17.0222 7.19214 17.1041 7.186 17.1848 7.19636C17.2654 7.20672 17.3431 7.23335 17.4131 7.27465C17.4831 7.31595 17.544 7.37105 17.5921 7.4366C17.6402 7.50216 17.6745 7.5768 17.6928 7.656L20.3844 19.368C20.419 19.5205 20.3927 19.6804 20.3111 19.8137C20.2295 19.9471 20.0991 20.0433 19.9476 20.082L18.7656 20.382C18.6871 20.402 18.6053 20.4059 18.5252 20.3934C18.4451 20.3809 18.3683 20.3524 18.2996 20.3094C18.2309 20.2665 18.1715 20.21 18.1252 20.1435C18.0789 20.077 18.0465 20.0018 18.03 19.9224L15.6264 8.1624C15.5965 8.01437 15.6235 7.86049 15.702 7.73148C15.7805 7.60246 15.9048 7.50781 16.05 7.4664L16.944 7.2144Z" fill="black"/>
</svg>
