<svg width="196" height="29" viewBox="0 0 196 29" fill="none" xmlns="http://www.w3.org/2000/svg">
<g clip-path="url(#clip0_823_6032)">
<path d="M0 0.160248C0.263768 0.177418 0.524638 0.208896 0.788406 0.208896C6.54493 0.208896 12.2986 0.220343 18.0551 0.197449C18.6812 0.197449 18.9072 0.360564 18.8261 0.970096C18.7826 1.30205 18.8174 1.64545 18.8174 2.089H0V0.160248Z" fill="#ED583B"/>
<path d="M0 26.8852C0.243478 26.8938 0.486957 26.911 0.733333 26.911C6.48986 26.911 12.2435 26.911 18 26.911H18.8145C18.8145 27.4776 18.8319 27.9927 18.8 28.5049C18.7942 28.6022 18.6116 28.7282 18.487 28.7654C18.3391 28.8111 18.1652 28.7768 18 28.7768C12.2435 28.7768 6.48986 28.7768 0.733333 28.7768C0.489855 28.7768 0.246377 28.7968 0.00289855 28.8083C0.00289855 28.1673 0.00289855 27.5234 0.00289855 26.8824L0 26.8852Z" fill="#ED583B"/>
<path d="M0 13.404C1.44928 13.3954 2.89565 13.3811 4.34493 13.3811C8.87536 13.3782 13.4058 13.3811 17.9362 13.3811H18.771V15.1839H18.058C12.2841 15.1839 6.50725 15.1839 0.733333 15.1839C0.489855 15.1839 0.246377 15.2011 0 15.2097L0 13.404Z" fill="#ED583B"/>
<path d="M169.055 2.08901V0.257554C169.148 0.234661 169.241 0.188875 169.333 0.188875C173.681 0.217491 178.038 0.0744086 182.371 0.320511C189.023 0.695388 194.446 5.16815 195.667 11.3407C197.461 20.4036 191.777 27.4204 183.331 28.5708C182.183 28.7281 181.015 28.7739 179.855 28.7854C176.487 28.814 173.119 28.794 169.751 28.794H169.061V14.5229H171.139V26.8566C171.371 26.8738 171.531 26.8938 171.69 26.8938C174.832 26.8938 177.977 26.9453 181.119 26.8681C185.035 26.7708 188.484 25.5231 191.078 22.4955C193.197 20.0259 193.98 17.1012 193.849 13.9334C193.69 10.0759 192.183 6.86225 188.928 4.56434C186.562 2.896 183.873 2.15197 180.997 2.10904C177.284 2.05181 173.568 2.08901 169.852 2.08615C169.609 2.08615 169.365 2.08615 169.052 2.08615L169.055 2.08901Z" fill="#ED583B"/>
<path d="M115.493 14.6488H117.466C117.478 14.8749 117.498 15.0695 117.498 15.2641C117.498 18.4348 117.493 21.6026 117.51 24.7733C117.51 25.1997 117.362 25.4744 117.04 25.7406C114.724 27.6579 111.997 28.5908 109.04 28.8827C105.42 29.2375 101.948 28.7138 98.8027 26.7994C94.6665 24.284 92.3998 20.6096 91.9998 15.8507C91.7042 12.3251 92.4085 9.02566 94.5303 6.09532C97.0288 2.64417 100.495 0.752614 104.71 0.183145C108.449 -0.323368 112.04 0.183145 115.322 2.13479C116.133 2.61841 116.858 3.24225 117.693 3.85465C117.194 4.37833 116.771 4.82189 116.324 5.2912C114.907 3.98628 113.356 2.99901 111.527 2.51539C107.266 1.3879 103.151 1.67693 99.4549 4.1866C95.2317 7.05398 93.6404 11.1748 94.1447 16.1083C94.7476 22.0233 99.8375 26.6992 106.148 27.0283C109.304 27.1943 112.281 26.6992 114.939 24.8821C115.348 24.6016 115.524 24.3098 115.519 23.8061C115.493 20.9988 115.507 18.1887 115.507 15.3814C115.507 15.1467 115.507 14.9121 115.507 14.6459L115.493 14.6488Z" fill="#ED583B"/>
<path d="M142.171 18.7896C144.597 22.132 146.974 25.4029 149.435 28.7911C148.606 28.7911 147.902 28.8169 147.203 28.7711C147.035 28.7596 146.852 28.5336 146.731 28.3676C144.638 25.5002 142.548 22.63 140.478 19.7454C140.206 19.3677 139.936 19.2818 139.473 19.2904C136.331 19.362 133.191 19.3877 130.049 19.4278C129.725 19.4306 129.4 19.4278 129 19.4278V28.7396H126.896V17.602C127.157 17.602 127.394 17.602 127.635 17.602C130.797 17.602 133.962 17.6478 137.125 17.582C138.481 17.5534 139.867 17.4303 141.18 17.1156C145.012 16.1941 147.064 13.2266 146.817 9.3433C146.51 4.48422 143.041 2.47247 139.325 2.2464C135.461 2.01175 131.574 2.12335 127.699 2.08329C127.435 2.08329 127.174 2.08329 126.873 2.08329V0.240382C127.006 0.22035 127.104 0.194595 127.2 0.194595C131.139 0.22035 135.078 0.206042 139.015 0.297615C140.864 0.34054 142.641 0.829883 144.275 1.72272C146.87 3.13924 148.444 5.27117 148.841 8.18147C149.223 10.9916 148.783 13.6215 146.907 15.8908C145.835 17.19 144.423 18.0084 142.841 18.5664C142.649 18.6322 142.455 18.6952 142.168 18.7896H142.171Z" fill="#ED583B"/>
<path d="M74.023 2.57263C73.7563 3.13638 73.5186 3.64003 73.2549 4.20091C72.9592 4.03207 72.7041 3.87754 72.4433 3.73732C68.8259 1.76851 65.0201 1.22765 61.052 2.44672C58.1244 3.34528 56.6636 5.80058 57.1824 8.63934C57.4114 9.8956 58.1331 10.8628 59.2143 11.4352C60.4578 12.0934 61.794 12.6199 63.1418 13.0434C65.507 13.7875 67.9215 14.3827 70.2983 15.0924C71.6954 15.5102 72.8404 16.3515 73.823 17.4017C75.4114 19.0987 75.6925 22.092 74.5041 24.47C73.4259 26.6334 71.5505 27.8439 69.2838 28.4048C64.7563 29.5237 60.3766 29.1316 56.2954 26.7507C55.652 26.3759 55.0983 25.855 54.4983 25.4058C54.2346 25.2083 54.2288 25.0051 54.4143 24.7419C54.6664 24.3842 54.8838 24.0036 55.107 23.6487C59.0085 26.9997 63.4983 27.738 68.3708 26.7622C70.2896 26.3787 71.8635 25.3972 72.7157 23.5714C73.6925 21.4767 73.0549 19.1702 71.1853 17.7852C69.8288 16.7807 68.223 16.383 66.6375 15.9394C64.4259 15.3213 62.2027 14.7318 59.9969 14.0908C59.4375 13.9277 58.9041 13.6501 58.3824 13.3782C53.5128 10.8256 54.2491 4.28104 58.0578 1.8286C59.7302 0.749757 61.5737 0.251829 63.5244 0.0858532C67.0317 -0.21462 70.3476 0.40922 73.4027 2.18631C73.594 2.29791 73.7795 2.42096 74.0259 2.57549L74.023 2.57263Z" fill="#ED583B"/>
<path d="M23.0229 28.7768C23.1534 28.4706 23.2403 28.2531 23.3389 28.0442C27.565 19.0157 31.7969 9.98718 36.0027 0.950073C36.2751 0.366295 36.6114 0.237521 37.2287 0.174565C38.2229 0.0772684 38.6229 0.489346 39.0114 1.32781C43.1447 10.2447 47.3244 19.1387 51.4896 28.0413C51.5882 28.2531 51.6751 28.4706 51.8056 28.7711C51.078 28.7711 50.4287 28.8054 49.7911 28.7482C49.6287 28.7339 49.4432 28.4534 49.3534 28.2588C47.2751 23.7947 45.2056 19.3276 43.136 14.8577C41.3302 10.9544 39.5244 7.05112 37.7186 3.14782C37.6345 2.96754 37.5418 2.79012 37.4027 2.51254C37.2722 2.76722 37.1737 2.94751 37.0867 3.13638C33.2635 11.4209 29.4316 19.6996 25.6316 27.9956C25.3534 28.5994 25.0519 28.8827 24.3708 28.7882C23.9563 28.731 23.5302 28.7768 23.0258 28.7768H23.0229Z" fill="#ED583B"/>
<path d="M82.4897 0.231796H84.5013V28.7339H82.4897V0.231796Z" fill="#ED583B"/>
<path d="M158.847 28.7625H156.832V0.231796H158.847V28.7625Z" fill="#ED583B"/>
</g>
<defs>
<clipPath id="clip0_823_6032">
<rect width="196" height="29" fill="white"/>
</clipPath>
</defs>
</svg>
