<svg width="885" height="354" viewBox="0 0 885 354" fill="none" xmlns="http://www.w3.org/2000/svg">
<path d="M115 352.5C76.5999 355.7 61.3332 349.167 58.4999 345.5C47.2999 340.782 43.8332 327.534 43.4999 321.5C30.6665 235.667 4.19989 58.3 0.999886 35.5C-2.20011 12.7 23.9999 2.33333 37.4999 0C298 11.5 827.1 36.2 859.5 43C888.3 51.8 886.833 69.6667 882.5 77.5C868.667 143.667 840.2 279.6 837 294C833.8 308.4 812.667 316.667 802.5 319L530 333C407.667 338.833 153.4 350.9 115 352.5Z" fill="url(#paint0_linear_823_6055)"/>
<defs>
<linearGradient id="paint0_linear_823_6055" x1="442.81" y1="0" x2="442.81" y2="353.357" gradientUnits="userSpaceOnUse">
<stop stop-color="#ED593B"/>
<stop offset="1" stop-color="#F69127"/>
</linearGradient>
</defs>
</svg>
